ffmpeg started on 2025-06-27 at 10:25:02
Report written to "D:\Convert\FFMetrics\reports\psnr_report-6.txt"
Log level: 32
Command line:
ffmpeg -hide_banner -nostdin -i "G:\\\xc0\xed\xe8\xec\xe5\\[\xd2\xee\xef-4]\\\xd2\xee\xea\xe8\xe9\xf1\xea\xe8\xe9 \xc3\xf3\xeb\xfc\\\xd2\xc2-4\\Tokyo_Ghoul_Re_[17]_[AniLibria_TV]_[HDTVRip_720p]_HEVC.mkv" -i "G:\\\xc0\xed\xe8\xec\xe5\\[\xd2\xee\xef-4]\\\xd2\xee\xea\xe8\xe9\xf1\xea\xe8\xe9 \xc3\xf3\xeb\xfc\\\xd2\xc2-4\\Tokyo_Ghoul_Re_[17]_[AniLibria_TV]_[HDTVRip_720p].mkv" -lavfi "[0:v]settb=AVTB,setpts=PTS-STARTPTS,format=pix_fmts=yuv420p10,fps=24000/1001,scale=1280:720:flags=bicubic[main];[1:v]settb=AVTB,setpts=PTS-STARTPTS,format=pix_fmts=yuv420p,fps=24000/1001,scale=1280:720:flags=bicubic[ref];[main][ref]psnr=eof_action=endall:stats_file='D\\:/Convert/FFMetrics/logs/psnr_logfile-6.txt'" -f null -
Input #0, matroska,webm, from 'G:\Аниме\[Топ-4]\Токийский Гуль\ТВ-4\Tokyo_Ghoul_Re_[17]_[AniLibria_TV]_[HDTVRip_720p]_HEVC.mkv':
  Metadata:
    ENCODER         : Lavf61.7.100
  Duration: 00:24:30.04, start: -0.021000, bitrate: 614 kb/s
  Stream #0:0(jpn): Video: hevc (Main 10), yuv420p10le(tv, bt709, progressive), 1280x720 [SAR 1:1 DAR 16:9], 23.98 fps, 23.98 tbr, 1k tbn (default)
      Metadata:
        ENCODER         : Lavc61.19.100 libx265
        BPS             : 416654
        DURATION        : 00:24:29.968708333
        NUMBER_OF_FRAMES: 35244
        NUMBER_OF_BYTES : 76558585
        _STATISTICS_WRITING_APP: mkvpropedit v66.0.0 ('Josie') 64-bit
        _STATISTICS_WRITING_DATE_UTC: 2025-06-26 15:45:41
        _STATISTICS_TAGS: BPS DURATION NUMBER_OF_FRAMES NUMBER_OF_BYTES
  Stream #0:1(rus): Audio: aac (LC), 48000 Hz, stereo, fltp (default) (forced)
      Metadata:
        title           : AniLibria.TV
        ENCODER         : Lavc61.19.100 aac
        BPS             : 193951
        DURATION        : 00:24:30.016000000
        NUMBER_OF_FRAMES: 68908
        NUMBER_OF_BYTES : 35639054
        _STATISTICS_WRITING_APP: mkvpropedit v66.0.0 ('Josie') 64-bit
        _STATISTICS_WRITING_DATE_UTC: 2025-06-26 15:45:41
        _STATISTICS_TAGS: BPS DURATION NUMBER_OF_FRAMES NUMBER_OF_BYTES
  Stream #0:2(rus): Subtitle: ass (ssa) (default) (forced)
      Metadata:
        title           : Надписи
        BPS             : 9
        DURATION        : 00:22:26.860000000
        NUMBER_OF_FRAMES: 11
        NUMBER_OF_BYTES : 1654
        _STATISTICS_WRITING_APP: mkvpropedit v66.0.0 ('Josie') 64-bit
        _STATISTICS_WRITING_DATE_UTC: 2025-06-26 15:45:41
        _STATISTICS_TAGS: BPS DURATION NUMBER_OF_FRAMES NUMBER_OF_BYTES
  Stream #0:3(rus): Subtitle: ass (ssa)
      Metadata:
        title           : Полные
        BPS             : 123
        DURATION        : 00:23:04.240000000
        NUMBER_OF_FRAMES: 290
        NUMBER_OF_BYTES : 21345
        _STATISTICS_WRITING_APP: mkvpropedit v66.0.0 ('Josie') 64-bit
        _STATISTICS_WRITING_DATE_UTC: 2025-06-26 15:45:41
        _STATISTICS_TAGS: BPS DURATION NUMBER_OF_FRAMES NUMBER_OF_BYTES
[matroska,webm @ 0000028ea6b06cc0] Could not find codec parameters for stream 15 (Attachment: none): unknown codec
Consider increasing the value for the 'analyzeduration' (0) and 'probesize' (5000000) options
Input #1, matroska,webm, from 'G:\Аниме\[Топ-4]\Токийский Гуль\ТВ-4\Tokyo_Ghoul_Re_[17]_[AniLibria_TV]_[HDTVRip_720p].mkv':
  Metadata:
    encoder         : libebml v1.4.2 + libmatroska v1.6.4
    creation_time   : 2024-12-27T09:49:09.000000Z
  Duration: 00:24:30.02, start: 0.000000, bitrate: 1684 kb/s
  Stream #1:0(jpn): Video: h264 (Main), yuv420p(tv, bt709, progressive), 1280x720, SAR 1:1 DAR 16:9, 23.98 fps, 23.98 tbr, 1k tbn (default)
      Metadata:
        BPS             : 1479837
        DURATION        : 00:24:29.969000000
        NUMBER_OF_FRAMES: 35244
        NUMBER_OF_BYTES : 271914402
        _STATISTICS_WRITING_APP: mkvmerge v66.0.0 ('Josie') 64-bit
        _STATISTICS_WRITING_DATE_UTC: 2024-12-27 09:49:09
        _STATISTICS_TAGS: BPS DURATION NUMBER_OF_FRAMES NUMBER_OF_BYTES
  Stream #1:1(rus): Audio: aac (LC), 48000 Hz, stereo, fltp (default) (forced)
      Metadata:
        title           : AniLibria.TV
        BPS             : 192091
        DURATION        : 00:24:30.016000000
        NUMBER_OF_FRAMES: 68907
        NUMBER_OF_BYTES : 35297195
        _STATISTICS_WRITING_APP: mkvmerge v66.0.0 ('Josie') 64-bit
        _STATISTICS_WRITING_DATE_UTC: 2024-12-27 09:49:09
        _STATISTICS_TAGS: BPS DURATION NUMBER_OF_FRAMES NUMBER_OF_BYTES
  Stream #1:2(rus): Subtitle: ass (ssa) (default) (forced)
      Metadata:
        title           : Надписи
        BPS             : 9
        DURATION        : 00:22:26.860000000
        NUMBER_OF_FRAMES: 11
        NUMBER_OF_BYTES : 1654
        _STATISTICS_WRITING_APP: mkvmerge v66.0.0 ('Josie') 64-bit
        _STATISTICS_WRITING_DATE_UTC: 2024-12-27 09:49:09
        _STATISTICS_TAGS: BPS DURATION NUMBER_OF_FRAMES NUMBER_OF_BYTES
  Stream #1:3(rus): Subtitle: ass (ssa)
      Metadata:
        title           : Полные
        BPS             : 123
        DURATION        : 00:23:04.240000000
        NUMBER_OF_FRAMES: 290
        NUMBER_OF_BYTES : 21345
        _STATISTICS_WRITING_APP: mkvmerge v66.0.0 ('Josie') 64-bit
        _STATISTICS_WRITING_DATE_UTC: 2024-12-27 09:49:09
        _STATISTICS_TAGS: BPS DURATION NUMBER_OF_FRAMES NUMBER_OF_BYTES
  Stream #1:4: Attachment: ttf
      Metadata:
        filename        : 10322__2.ttf
        mimetype        : application/x-truetype-font
  Stream #1:5: Attachment: ttf
      Metadata:
        filename        : 10352__0.ttf
        mimetype        : application/x-truetype-font
  Stream #1:6: Attachment: ttf
      Metadata:
        filename        : Aero Matics Display Bold Italic.ttf
        mimetype        : application/x-truetype-font
  Stream #1:7: Attachment: ttf
      Metadata:
        filename        : Aero Matics Display Bold.ttf
        mimetype        : application/x-truetype-font
  Stream #1:8: Attachment: ttf
      Metadata:
        filename        : Aero Matics Display Italic.ttf
        mimetype        : application/x-truetype-font
  Stream #1:9: Attachment: ttf
      Metadata:
        filename        : Aero Matics Display Light Italic.ttf
        mimetype        : application/x-truetype-font
  Stream #1:10: Attachment: ttf
      Metadata:
        filename        : Aero Matics Display Light.ttf
        mimetype        : application/x-truetype-font
  Stream #1:11: Attachment: ttf
      Metadata:
        filename        : Aero_Matics_Display_Regular.ttf
        mimetype        : application/x-truetype-font
  Stream #1:12: Attachment: ttf
      Metadata:
        filename        : BenchNine-Regular.ttf
        mimetype        : application/x-truetype-font
  Stream #1:13: Attachment: ttf
      Metadata:
        filename        : OpenSanA.ttf
        mimetype        : application/x-truetype-font
  Stream #1:14: Attachment: ttf
      Metadata:
        filename        : REDOCTOB.otf
        mimetype        : application/x-truetype-font
  Stream #1:15: Attachment: none
      Metadata:
        filename        : simsun_0.ttc
        mimetype        : application/octet-stream
  Stream #1:16: Attachment: ttf
      Metadata:
        filename        : Snowstorm.ttf
        mimetype        : application/x-truetype-font
  Stream #1:17: Attachment: ttf
      Metadata:
        filename        : TEMPSITC.TTF
        mimetype        : application/x-truetype-font
  Stream #1:18: Attachment: ttf
      Metadata:
        filename        : TrajanPro3-Bold.otf
        mimetype        : application/x-truetype-font
  Stream #1:19: Attachment: ttf
      Metadata:
        filename        : TrajanPro3-Regular.otf
        mimetype        : application/x-truetype-font
  Stream #1:20: Attachment: ttf
      Metadata:
        filename        : v_CCTimSale_v1.11.ttf
        mimetype        : application/x-truetype-font
  Stream #1:21: Attachment: ttf
      Metadata:
        filename        : v_HolyMackerelli_v1.9.ttf
        mimetype        : application/x-truetype-font
  Stream #1:22: Attachment: ttf
      Metadata:
        filename        : v_StraightJacketBB_v1.1.ttf
        mimetype        : application/x-truetype-font
  Stream #1:23: Attachment: ttf
      Metadata:
        filename        : XENI.TTF
        mimetype        : application/x-truetype-font
Stream mapping:
  Stream #0:0 (hevc) -> settb:default
  Stream #1:0 (h264) -> settb:default
  psnr:default -> Stream #0:0 (wrapped_avframe)
  Stream #0:1 -> #0:1 (aac (native) -> pcm_s16le (native))
Output #0, null, to 'pipe:':
  Metadata:
    encoder         : Lavf61.7.100
  Stream #0:0: Video: wrapped_avframe, yuv420p10le(tv, bt709, progressive), 1280x720 [SAR 1:1 DAR 16:9], q=2-31, 200 kb/s, 23.98 fps, 23.98 tbn
      Metadata:
        encoder         : Lavc61.19.100 wrapped_avframe
  Stream #0:1(rus): Audio: pcm_s16le, 48000 Hz, stereo, s16, 1536 kb/s (default) (forced)
      Metadata:
        title           : AniLibria.TV
        _STATISTICS_TAGS: BPS DURATION NUMBER_OF_FRAMES NUMBER_OF_BYTES
        BPS             : 193951
        DURATION        : 00:24:30.016000000
        NUMBER_OF_FRAMES: 68908
        NUMBER_OF_BYTES : 35639054
        _STATISTICS_WRITING_APP: mkvpropedit v66.0.0 ('Josie') 64-bit
        _STATISTICS_WRITING_DATE_UTC: 2025-06-26 15:45:41
        encoder         : Lavc61.19.100 pcm_s16le
frame=  441 fps=0.0 q=-0.0 size=N/A time=00:00:18.39 bitrate=N/A speed=35.9x    frame=  879 fps=846 q=-0.0 size=N/A time=00:00:36.66 bitrate=N/A speed=35.3x    frame= 1320 fps=853 q=-0.0 size=N/A time=00:00:55.05 bitrate=N/A speed=35.6x    frame= 1708 fps=830 q=-0.0 size=N/A time=00:01:11.23 bitrate=N/A speed=34.6x    frame= 2192 fps=851 q=-0.0 size=N/A time=00:01:31.42 bitrate=N/A speed=35.5x    frame= 2652 fps=857 q=-0.0 size=N/A time=00:01:50.61 bitrate=N/A speed=35.8x    frame= 3071 fps=849 q=-0.0 size=N/A time=00:02:08.08 bitrate=N/A speed=35.4x    frame= 3359 fps=814 q=-0.0 size=N/A time=00:02:20.09 bitrate=N/A speed=  34x    frame= 3714 fps=801 q=-0.0 size=N/A time=00:02:34.90 bitrate=N/A speed=33.4x    frame= 4107 fps=797 q=-0.0 size=N/A time=00:02:51.29 bitrate=N/A speed=33.2x    frame= 4613 fps=814 q=-0.0 size=N/A time=00:03:12.40 bitrate=N/A speed=  34x    frame= 5045 fps=816 q=-0.0 size=N/A time=00:03:30.41 bitrate=N/A speed=  34x    frame= 5614 fps=837 q=-0.0 size=N/A time=00:03:54.15 bitrate=N/A speed=34.9x    frame= 6074 fps=842 q=-0.0 size=N/A time=00:04:13.33 bitrate=N/A speed=35.1x    frame= 6607 fps=854 q=-0.0 size=N/A time=00:04:35.56 bitrate=N/A speed=35.6x    frame= 7116 fps=862 q=-0.0 size=N/A time=00:04:56.79 bitrate=N/A speed=35.9x    frame= 7636 fps=870 q=-0.0 size=N/A time=00:05:18.48 bitrate=N/A speed=36.3x    frame= 8092 fps=871 q=-0.0 size=N/A time=00:05:37.50 bitrate=N/A speed=36.3x    frame= 8590 fps=875 q=-0.0 size=N/A time=00:05:58.27 bitrate=N/A speed=36.5x    frame= 9094 fps=881 q=-0.0 size=N/A time=00:06:19.29 bitrate=N/A speed=36.7x    frame= 9624 fps=888 q=-0.0 size=N/A time=00:06:41.40 bitrate=N/A speed=  37x    frame=10177 fps=895 q=-0.0 size=N/A time=00:07:04.46 bitrate=N/A speed=37.3x    frame=10595 fps=892 q=-0.0 size=N/A time=00:07:21.89 bitrate=N/A speed=37.2x    frame=11095 fps=896 q=-0.0 size=N/A time=00:07:42.75 bitrate=N/A speed=37.4x    frame=11623 fps=900 q=-0.0 size=N/A time=00:08:04.77 bitrate=N/A speed=37.6x    frame=12072 fps=900 q=-0.0 size=N/A time=00:08:23.50 bitrate=N/A speed=37.5x    frame=12601 fps=904 q=-0.0 size=N/A time=00:08:45.56 bitrate=N/A speed=37.7x    frame=13107 fps=907 q=-0.0 size=N/A time=00:09:06.67 bitrate=N/A speed=37.8x    frame=13494 fps=902 q=-0.0 size=N/A time=00:09:22.81 bitrate=N/A speed=37.6x    frame=13882 fps=896 q=-0.0 size=N/A time=00:09:38.99 bitrate=N/A speed=37.4x    frame=14344 fps=896 q=-0.0 size=N/A time=00:09:58.26 bitrate=N/A speed=37.4x    frame=14852 fps=899 q=-0.0 size=N/A time=00:10:19.45 bitrate=N/A speed=37.5x    frame=15403 fps=904 q=-0.0 size=N/A time=00:10:42.43 bitrate=N/A speed=37.7x    frame=15908 fps=906 q=-0.0 size=N/A time=00:11:03.49 bitrate=N/A speed=37.8x    frame=16424 fps=909 q=-0.0 size=N/A time=00:11:25.01 bitrate=N/A speed=37.9x    frame=16917 fps=910 q=-0.0 size=N/A time=00:11:45.57 bitrate=N/A speed=  38x    frame=17418 fps=912 q=-0.0 size=N/A time=00:12:06.47 bitrate=N/A speed=38.1x    frame=17930 fps=914 q=-0.0 size=N/A time=00:12:27.83 bitrate=N/A speed=38.1x    frame=18415 fps=915 q=-0.0 size=N/A time=00:12:48.05 bitrate=N/A speed=38.2x    frame=18961 fps=918 q=-0.0 size=N/A time=00:13:10.83 bitrate=N/A speed=38.3x    frame=19440 fps=919 q=-0.0 size=N/A time=00:13:30.81 bitrate=N/A speed=38.3x    frame=19997 fps=923 q=-0.0 size=N/A time=00:13:54.04 bitrate=N/A speed=38.5x    frame=20506 fps=924 q=-0.0 size=N/A time=00:14:15.27 bitrate=N/A speed=38.6x    frame=20987 fps=925 q=-0.0 size=N/A time=00:14:35.33 bitrate=N/A speed=38.6x    frame=21611 fps=931 q=-0.0 size=N/A time=00:15:01.35 bitrate=N/A speed=38.8x    frame=22170 fps=934 q=-0.0 size=N/A time=00:15:24.67 bitrate=N/A speed=  39x    frame=22729 fps=937 q=-0.0 size=N/A time=00:15:47.98 bitrate=N/A speed=39.1x    frame=23250 fps=939 q=-0.0 size=N/A time=00:16:09.71 bitrate=N/A speed=39.2x    frame=23867 fps=944 q=-0.0 size=N/A time=00:16:35.45 bitrate=N/A speed=39.4x    frame=24343 fps=944 q=-0.0 size=N/A time=00:16:55.30 bitrate=N/A speed=39.4x    frame=24820 fps=943 q=-0.0 size=N/A time=00:17:15.20 bitrate=N/A speed=39.3x    frame=25293 fps=943 q=-0.0 size=N/A time=00:17:34.92 bitrate=N/A speed=39.3x    frame=25801 fps=944 q=-0.0 size=N/A time=00:17:56.11 bitrate=N/A speed=39.4x    frame=26333 fps=945 q=-0.0 size=N/A time=00:18:18.30 bitrate=N/A speed=39.4x    frame=26847 fps=946 q=-0.0 size=N/A time=00:18:39.74 bitrate=N/A speed=39.5x    frame=27378 fps=948 q=-0.0 size=N/A time=00:19:01.89 bitrate=N/A speed=39.5x    frame=27880 fps=948 q=-0.0 size=N/A time=00:19:22.82 bitrate=N/A speed=39.5x    frame=28372 fps=948 q=-0.0 size=N/A time=00:19:43.34 bitrate=N/A speed=39.6x    frame=28913 fps=950 q=-0.0 size=N/A time=00:20:05.91 bitrate=N/A speed=39.6x    frame=29404 fps=950 q=-0.0 size=N/A time=00:20:26.39 bitrate=N/A speed=39.6x    frame=29819 fps=947 q=-0.0 size=N/A time=00:20:43.70 bitrate=N/A speed=39.5x    frame=30307 fps=947 q=-0.0 size=N/A time=00:21:04.05 bitrate=N/A speed=39.5x    frame=30788 fps=947 q=-0.0 size=N/A time=00:21:24.11 bitrate=N/A speed=39.5x    frame=31311 fps=948 q=-0.0 size=N/A time=00:21:45.92 bitrate=N/A speed=39.5x    frame=31841 fps=949 q=-0.0 size=N/A time=00:22:08.03 bitrate=N/A speed=39.6x    frame=32302 fps=948 q=-0.0 size=N/A time=00:22:27.26 bitrate=N/A speed=39.5x    frame=32733 fps=947 q=-0.0 size=N/A time=00:22:45.23 bitrate=N/A speed=39.5x    frame=33104 fps=943 q=-0.0 size=N/A time=00:23:00.71 bitrate=N/A speed=39.3x    frame=33465 fps=940 q=-0.0 size=N/A time=00:23:15.76 bitrate=N/A speed=39.2x    frame=33867 fps=938 q=-0.0 size=N/A time=00:23:32.53 bitrate=N/A speed=39.1x    frame=34305 fps=936 q=-0.0 size=N/A time=00:23:50.80 bitrate=N/A speed=  39x    frame=34770 fps=936 q=-0.0 size=N/A time=00:24:10.19 bitrate=N/A speed=  39x    [Parsed_psnr_10 @ 0000028ea6f94640] PSNR y:47.456576 u:49.887727 v:50.647969 average:48.204395 min:35.572296 max:55.732628
[out#0/null @ 0000028ea645bec0] video:15144KiB audio:275632KiB subtitle:0KiB other streams:0KiB global headers:0KiB muxing overhead: unknown
frame=35244 fps=938 q=-0.0 Lsize=N/A time=00:24:29.96 bitrate=N/A speed=39.1x    
